<svg xmlns="http://www.w3.org/2000/svg" width="120" height="16" fill="none" viewBox="0 0 120 16">
    <g fill-rule="evenodd" clip-path="url(#clip0)" clip-rule="evenodd">
        <path fill="#00CAF9" d="M58.402 10.034c0 1.695 1.224 2.915 2.856 2.915 1.02 0 1.903-.474 2.38-1.356l2.447 1.288c-.884 1.695-2.72 2.78-4.827 2.78-3.264 0-5.643-2.44-5.643-5.627s2.38-5.627 5.643-5.627c2.107 0 3.943 1.152 4.827 2.78l-2.448 1.288c-.407-.814-1.291-1.356-2.38-1.356-1.63 0-2.855 1.22-2.855 2.915zm8.363 0c0-3.187 2.516-5.627 5.643-5.627s5.711 2.44 5.711 5.627c0 3.186-2.516 5.627-5.711 5.627-3.127 0-5.643-2.44-5.643-5.627zm8.635 0c0-1.763-1.292-2.983-2.924-2.983s-2.924 1.22-2.924 2.983c0 1.763 1.292 2.983 2.924 2.983s2.924-1.22 2.924-2.983zm28.147-3.187c-.68 0-1.224.272-1.224.882 0 .601.83.83 1.845 1.109 1.617.444 3.704 1.018 3.662 3.433 0 2.373-2.04 3.458-4.351 3.458-2.108 0-3.74-.95-4.487-2.576l2.447-1.289c.34.882 1.02 1.356 2.108 1.356.884 0 1.495-.339 1.495-.949 0-.609-.85-.846-1.887-1.134-1.617-.45-3.688-1.027-3.688-3.34 0-2.17 1.836-3.39 4.08-3.39 1.767 0 3.263.746 4.079 2.237l-2.38 1.288c-.272-.678-.883-1.085-1.699-1.085zm13.733 5.22c-.475.61-1.291 1.085-2.379 1.085-1.496 0-2.652-.542-3.128-1.966h8.091l.026-.152c.058-.342.11-.645.11-1 0-3.119-2.244-5.627-5.439-5.627-3.331 0-5.643 2.44-5.643 5.627 0 3.186 2.311 5.627 5.915 5.627 2.04 0 3.671-.881 4.691-2.305l-2.244-1.288zm-2.651-5.22c1.156 0 2.312.61 2.651 2.17h-5.439c.272-1.356 1.292-2.17 2.788-2.17zM98.516 4.475v3.05c-1.428-.203-3.264.475-3.264 2.712v5.153h-2.787V4.678h2.787v1.83c.544-1.423 1.904-2.033 3.264-2.033zM89.949 15.39V4.746h-2.787v5.762c0 1.83-1.02 2.645-2.38 2.645-1.224 0-2.108-.814-2.108-2.238V4.678h-2.787v6.576c0 2.848 1.835 4.407 4.079 4.407 1.428 0 2.584-.542 3.196-1.492v1.22h2.787z"/>
        <path fill="#fff" d="M2.788 5.966c.747-.949 1.903-1.56 3.467-1.56 2.855 0 5.235 2.441 5.235 5.628 0 3.186-2.38 5.627-5.235 5.627-1.564 0-2.72-.542-3.467-1.56v1.289H0V1.492L2.788 0v5.966zm0 4.068c0 1.83 1.291 3.05 2.991 3.05 1.7 0 2.924-1.22 2.992-3.05 0-1.83-1.292-3.051-2.992-3.051s-2.991 1.22-2.991 3.05zm49.767-5.356V1.695h-2.787v2.983h-2.38v2.644h2.38V16l2.787-1.492V7.322h2.448V4.678h-2.448zM41.27 7.728c0-.61.544-.88 1.224-.88.816 0 1.428.406 1.7 1.084l2.38-1.288c-.817-1.491-2.312-2.237-4.08-2.237-2.244 0-4.08 1.22-4.08 3.39 0 2.313 2.071 2.89 3.689 3.34 1.036.288 1.887.525 1.887 1.134 0 .61-.612.95-1.496.95-1.088 0-1.768-.475-2.108-1.357l-2.447 1.288c.747 1.628 2.38 2.577 4.487 2.577 2.312 0 4.351-1.085 4.351-3.458.042-2.415-2.045-2.989-3.661-3.433-1.016-.28-1.846-.508-1.846-1.11zm-9.994-3.321c-3.128 0-5.643 2.44-5.643 5.627 0 3.186 2.515 5.627 5.643 5.627 3.195 0 5.71-2.44 5.71-5.627s-2.583-5.627-5.71-5.627zm.068 2.644c1.631 0 2.923 1.22 2.923 2.983 0 1.763-1.291 2.983-2.923 2.983-1.632 0-2.924-1.22-2.924-2.983 0-1.763 1.292-2.983 2.924-2.983zm-18.425 2.983c0-3.187 2.515-5.627 5.643-5.627 3.127 0 5.71 2.44 5.71 5.627 0 3.186-2.515 5.627-5.71 5.627-3.128 0-5.643-2.44-5.643-5.627zm8.566 0c0-1.763-1.291-2.983-2.923-2.983-1.632 0-2.924 1.22-2.924 2.983 0 1.763 1.292 2.983 2.924 2.983s2.923-1.22 2.923-2.983z"/>
    </g>
    <defs>
        <clipPath id="clip0">
            <path fill="#fff" d="M0 0H120V16H0z"/>
        </clipPath>
    </defs>
</svg>
